####
#
# OBJ File Generated by Meshlab
#
####
# Object textured.obj
#
# Vertices: 76
# Faces: 166
#
####
mtllib ./textured.mtl

vn 0.346070 -0.860865 0.373025
v 0.135900 0.000000 0.084500 0.749020 0.749020 0.749020
vn -0.346085 -0.860867 0.373006
v -0.135900 0.000000 0.084500 0.749020 0.749020 0.749020
vn -0.341575 -0.875582 -0.341588
v -0.135900 0.000000 -0.084900 0.749020 0.749020 0.749020
vn 0.341555 -0.875580 -0.341614
v 0.135900 0.000000 -0.084900 0.749020 0.749020 0.749020
vn 0.346083 0.860867 0.373007
v 0.135900 0.042000 0.084500 0.749020 0.749020 0.749020
vn 0.341572 0.875584 -0.341585
v 0.135900 0.042000 -0.084900 0.749020 0.749020 0.749020
vn -0.341552 0.875582 -0.341611
v -0.135900 0.042000 -0.084900 0.749020 0.749020 0.749020
vn -0.346068 0.860865 0.373026
v -0.135900 0.042000 0.084500 0.749020 0.749020 0.749020
vn -0.346149 0.372943 0.860868
v -0.135900 0.041500 0.085000 0.749020 0.749020 0.749020
vn -0.346149 -0.372946 0.860867
v -0.135900 0.000500 0.085000 0.749020 0.749020 0.749020
vn 0.346148 -0.372943 0.860869
v 0.135900 0.000500 0.085000 0.749020 0.749020 0.749020
vn 0.346150 0.372946 0.860867
v 0.135900 0.041500 0.085000 0.749020 0.749020 0.749020
vn -0.953175 -0.127395 -0.274277
v -0.136000 0.039418 0.082527 0.749020 0.749020 0.749020
vn -0.953176 0.127395 -0.274275
v -0.136000 0.002582 0.082527 0.749020 0.749020 0.749020
vn -0.879218 -0.151294 0.451758
v -0.136000 0.000564 0.084923 0.749020 0.749020 0.749020
vn -0.879219 0.151288 0.451758
v -0.136000 0.041436 0.084923 0.749020 0.749020 0.749020
vn 0.875568 0.341602 -0.341598
v 0.136000 0.041900 -0.084900 0.749020 0.749020 0.749020
vn 0.879101 0.452031 0.151159
v 0.136000 0.041924 0.084435 0.749020 0.749020 0.749020
vn 0.953157 -0.274294 -0.127494
v 0.136000 0.039530 0.082415 0.749020 0.749020 0.749020
vn 0.818701 -0.435996 -0.373680
v 0.136000 0.039554 -0.084900 0.749020 0.749020 0.749020
vn 0.341571 0.341588 -0.875584
v 0.135900 0.041900 -0.085000 0.749020 0.749020 0.749020
vn 0.367703 -0.450617 -0.813473
v 0.135900 0.039554 -0.085000 0.749020 0.749020 0.749020
vn -0.362521 -0.432343 -0.825626
v -0.135900 0.039554 -0.085000 0.749020 0.749020 0.749020
vn -0.341572 0.341585 -0.875584
v -0.135900 0.041900 -0.085000 0.749020 0.749020 0.749020
vn -0.367704 0.450615 -0.813474
v -0.135900 0.002446 -0.085000 0.749020 0.749020 0.749020
vn 0.362521 0.432341 -0.825627
v 0.135900 0.002446 -0.085000 0.749020 0.749020 0.749020
vn 0.341573 -0.341582 -0.875585
v 0.135900 0.000100 -0.085000 0.749020 0.749020 0.749020
vn -0.341571 -0.341585 -0.875585
v -0.135900 0.000100 -0.085000 0.749020 0.749020 0.749020
vn 0.160475 -0.907819 -0.387442
v 0.128078 0.039454 -0.078302 0.749020 0.749020 0.749020
vn 0.000000 -0.970139 -0.242550
v -0.128078 0.039454 -0.078302 0.749020 0.749020 0.749020
vn -0.056799 -0.921756 -0.383588
v -0.135729 0.039454 -0.084900 0.749020 0.749020 0.749020
vn 0.065484 -0.921028 -0.383951
v 0.135729 0.039454 -0.084900 0.749020 0.749020 0.749020
vn -0.065485 0.921027 -0.383955
v -0.135729 0.002546 -0.084900 0.749020 0.749020 0.749020
vn 0.000000 0.970143 -0.242536
v -0.128078 0.002546 -0.078302 0.749020 0.749020 0.749020
vn 0.160483 0.907809 -0.387462
v 0.128078 0.002546 -0.078302 0.749020 0.749020 0.749020
vn 0.056799 0.921755 -0.383591
v 0.135729 0.002546 -0.084900 0.749020 0.749020 0.749020
vn 0.400437 -0.857630 -0.322677
v 0.135900 0.039454 0.082350 0.749020 0.749020 0.749020
vn 0.472497 -0.760464 -0.445466
v 0.128178 0.039454 0.082350 0.749020 0.749020 0.749020
vn 0.484527 -0.851439 -0.200711
v 0.128178 0.039454 -0.078202 0.749020 0.749020 0.749020
vn 0.375502 -0.917282 -0.132638
v 0.135900 0.039454 -0.084783 0.749020 0.749020 0.749020
vn -0.400441 0.857627 -0.322681
v -0.135900 0.002546 0.082350 0.749020 0.749020 0.749020
vn -0.472497 0.760462 -0.445470
v -0.128178 0.002546 0.082350 0.749020 0.749020 0.749020
vn -0.316247 0.948677 0.000000
v -0.128178 0.002546 -0.078202 0.749020 0.749020 0.749020
vn -0.375505 0.917280 -0.132640
v -0.135900 0.002546 -0.084783 0.749020 0.749020 0.749020
vn 0.400657 0.322764 -0.857495
v 0.135900 0.002646 0.082450 0.749020 0.749020 0.749020
vn 0.472498 0.445462 -0.760466
v 0.128178 0.002646 0.082450 0.749020 0.749020 0.749020
vn 0.472496 -0.445469 -0.760463
v 0.128178 0.039354 0.082450 0.749020 0.749020 0.749020
vn 0.400654 -0.322776 -0.857492
v 0.135900 0.039354 0.082450 0.749020 0.749020 0.749020
vn -0.400658 -0.322767 -0.857493
v -0.135900 0.039354 0.082450 0.749020 0.749020 0.749020
vn -0.472498 -0.445466 -0.760464
v -0.128178 0.039354 0.082450 0.749020 0.749020 0.749020
vn -0.472497 0.445465 -0.760465
v -0.128178 0.002646 0.082450 0.749020 0.749020 0.749020
vn -0.400650 0.322776 -0.857493
v -0.135900 0.002646 0.082450 0.749020 0.749020 0.749020
vn 0.484501 0.851457 -0.200698
v 0.128178 0.002546 -0.078202 0.749020 0.749020 0.749020
vn 0.472492 0.760463 -0.445474
v 0.128178 0.002546 0.082350 0.749020 0.749020 0.749020
vn 0.400475 0.857601 -0.322708
v 0.135900 0.002546 0.082350 0.749020 0.749020 0.749020
vn 0.376112 0.919264 -0.116160
v 0.135900 0.002546 -0.084783 0.749020 0.749020 0.749020
vn -0.316228 -0.948683 0.000000
v -0.128178 0.039454 -0.078202 0.749020 0.749020 0.749020
vn -0.472492 -0.760465 -0.445470
v -0.128178 0.039454 0.082350 0.749020 0.749020 0.749020
vn -0.400471 -0.857604 -0.322705
v -0.135900 0.039454 0.082350 0.749020 0.749020 0.749020
vn -0.376108 -0.919266 -0.116158
v -0.135900 0.039454 -0.084783 0.749020 0.749020 0.749020
vn 0.879219 0.151292 0.451758
v 0.136000 0.041436 0.084923 0.749020 0.749020 0.749020
vn 0.953177 -0.127396 -0.274271
v 0.136000 0.039418 0.082527 0.749020 0.749020 0.749020
vn 0.953173 0.127393 -0.274285
v 0.136000 0.002582 0.082527 0.749020 0.749020 0.749020
vn 0.879219 -0.151290 0.451758
v 0.136000 0.000564 0.084923 0.749020 0.749020 0.749020
vn -0.953150 -0.274307 -0.127514
v -0.136000 0.039530 0.082415 0.749020 0.749020 0.749020
vn -0.879113 0.451996 0.151193
v -0.136000 0.041924 0.084435 0.749020 0.749020 0.749020
vn -0.879103 -0.452028 0.151158
v -0.136000 0.000076 0.084435 0.749020 0.749020 0.749020
vn -0.953158 0.274288 -0.127494
v -0.136000 0.002470 0.082415 0.749020 0.749020 0.749020
vn -0.818702 0.435993 -0.373680
v -0.136000 0.002446 -0.084900 0.749020 0.749020 0.749020
vn -0.875569 -0.341599 -0.341598
v -0.136000 0.000100 -0.084900 0.749020 0.749020 0.749020
vn -0.875566 0.341579 -0.341624
v -0.136000 0.041900 -0.084900 0.749020 0.749020 0.749020
vn -0.829629 -0.420379 -0.367419
v -0.136000 0.039554 -0.084900 0.749020 0.749020 0.749020
vn 0.875567 -0.341576 -0.341624
v 0.136000 0.000100 -0.084900 0.749020 0.749020 0.749020
vn 0.829630 0.420376 -0.367420
v 0.136000 0.002446 -0.084900 0.749020 0.749020 0.749020
vn 0.953152 0.274303 -0.127514
v 0.136000 0.002470 0.082415 0.749020 0.749020 0.749020
vn 0.879115 -0.451993 0.151192
v 0.136000 0.000076 0.084435 0.749020 0.749020 0.749020
# 76 vertices, 0 vertices normals


usemtl material_0
vt 0.359644 0.726510
vt 0.359644 0.284140
vt 0.635352 0.284140
f 1/1/1 2/2/2 3/3/3
vt 0.635352 0.726510
f 3/3/3 4/4/4 1/1/1
vt 0.356931 0.726510
vt 0.081223 0.726510
vt 0.081223 0.284140
f 5/5/5 6/6/6 7/7/7
vt 0.356931 0.284140
f 7/7/7 8/8/8 5/5/5
vt 0.077982 0.726510
vt 0.011252 0.726510
vt 0.011252 0.284140
f 9/9/9 10/10/10 11/11/11
vt 0.077982 0.284140
f 11/11/11 12/12/12 9/9/9
vt 0.005026 0.934845
vt 0.005026 0.994798
vt 0.001125 0.998081
f 13/13/13 14/14/14 15/15/15
vt 0.001125 0.931561
f 15/15/15 16/16/16 13/13/13
vt 0.911929 0.277522
vt 0.911891 0.001919
vt 0.915787 0.005208
f 17/17/17 18/18/18 19/19/19
vt 0.915748 0.277522
f 19/19/19 20/20/20 17/17/17
vt 0.001163 0.279421
vt 0.004981 0.279421
vt 0.004981 0.721791
f 21/21/21 22/22/22 23/23/23
vt 0.001163 0.721791
f 23/23/23 24/24/24 21/21/21
vt 0.638228 0.726510
vt 0.638228 0.284140
vt 0.642046 0.284140
f 25/25/25 26/26/26 27/27/27
vt 0.642046 0.726510
f 27/27/27 28/28/28 25/25/25
vt 0.466918 0.262633
vt 0.883825 0.262633
vt 0.896279 0.273372
f 29/29/29 30/30/30 31/31/31
vt 0.454464 0.273372
f 31/31/31 32/32/32 29/29/29
vt 0.006159 0.273372
vt 0.018613 0.262633
vt 0.435520 0.262633
f 33/33/33 34/34/34 35/35/35
vt 0.447974 0.273372
f 35/35/35 36/36/36 33/33/33
vt 0.454187 0.001163
vt 0.466755 0.001163
vt 0.466755 0.262470
f 37/37/37 38/38/38 39/39/39
vt 0.454187 0.273181
f 39/39/39 40/40/40 37/37/37
vt 0.005882 0.001163
vt 0.018450 0.001163
vt 0.018450 0.262470
f 41/41/41 42/42/42 43/43/43
vt 0.005882 0.273181
f 43/43/43 44/44/44 41/41/41
vt 0.001000 0.732445
vt 0.013568 0.732445
vt 0.013568 0.792188
f 45/45/45 46/46/46 47/47/47
vt 0.001000 0.792188
f 47/47/47 48/48/48 45/45/45
vt 0.443370 0.792188
vt 0.430801 0.792188
vt 0.430801 0.732445
f 49/49/49 50/50/50 51/51/51
vt 0.443370 0.732445
f 51/51/51 52/52/52 49/49/49
vt 0.435683 0.262470
vt 0.435683 0.001163
vt 0.448252 0.001163
f 53/53/53 54/54/54 55/55/55
vt 0.448252 0.273181
f 55/55/55 56/56/56 53/53/53
vt 0.883988 0.262470
vt 0.883988 0.001163
vt 0.896556 0.001163
f 57/57/57 58/58/58 59/59/59
vt 0.896556 0.273181
f 59/59/59 60/60/60 57/57/57
vt 0.078795 0.726510
f 8/61/8 9/9/9 12/12/12
vt 0.078795 0.284140
f 12/12/12 5/62/5 8/61/8
vt 0.010438 0.284140
f 1/63/1 11/11/11 10/10/10
vt 0.010438 0.726510
f 10/10/10 2/64/2 1/63/1
vt 0.912685 0.001125
vt 0.915969 0.005026
f 18/18/18 61/65/61 62/66/62
f 62/66/62 19/19/19 18/18/18
vt 0.975922 0.005026
f 63/67/63 62/66/62 61/65/61
vt 0.979205 0.001125
f 61/65/61 64/68/64 63/67/63
vt 0.005208 0.934662
f 65/69/65 13/13/13 16/16/16
vt 0.001919 0.930767
f 16/16/16 66/70/66 65/69/65
vt 0.001919 0.998876
f 67/71/67 15/15/15 14/14/14
vt 0.005208 0.994980
f 14/14/14 68/72/68 67/71/67
vt 0.448252 0.001000
f 45/73/45 55/55/55 54/54/54
vt 0.435683 0.001000
f 54/54/54 46/74/46 45/73/45
vt 0.466755 0.001000
f 47/75/47 38/38/38 37/37/37
vt 0.454187 0.001000
f 37/37/37 48/76/48 47/75/47
vt 0.896556 0.001000
f 49/77/49 59/59/59 58/58/58
vt 0.883988 0.001000
f 58/58/58 50/78/50 49/77/49
vt 0.018450 0.001000
f 51/79/51 42/42/42 41/41/41
vt 0.005882 0.001000
f 41/41/41 52/80/52 51/79/51
vt 0.277522 0.995019
vt 0.277522 0.998837
f 68/72/68 69/81/69 70/82/70
f 70/82/70 67/71/67 68/72/68
vt 0.277522 0.930805
vt 0.277522 0.934624
f 71/83/71 72/84/72 65/69/65
f 65/69/65 66/70/66 71/83/71
vt 0.979961 0.277522
vt 0.976143 0.277522
vt 0.976104 0.005208
f 73/85/73 74/86/74 75/87/75
vt 0.980000 0.001919
f 75/87/75 76/88/76 73/85/73
f 64/68/64 76/88/76 75/87/75
f 75/87/75 63/67/63 64/68/64
vt 0.277522 0.999000
vt 0.277685 0.998837
f 3/89/3 70/82/70 28/90/28
vt 0.980124 0.277522
vt 0.979961 0.277685
f 4/91/4 27/92/27 73/85/73
vt 0.277685 0.930805
vt 0.277522 0.930643
f 24/93/24 71/83/71 7/94/7
vt 0.911767 0.277522
vt 0.911929 0.277685
f 6/95/6 17/17/17 21/96/21
vt 0.448252 0.273534
f 26/97/26 36/36/36 56/56/56
vt 0.448414 0.273372
f 56/56/56 74/98/74 26/97/26
vt 0.454024 0.273372
f 20/99/20 40/40/40 32/32/32
vt 0.454187 0.273534
f 32/32/32 22/100/22 20/99/20
vt 0.005719 0.273372
f 69/101/69 44/44/44 33/33/33
vt 0.005882 0.273534
f 33/33/33 25/102/25 69/101/69
vt 0.896556 0.273534
f 23/103/23 31/31/31 60/60/60
vt 0.896719 0.273372
f 60/60/60 72/104/72 23/103/23
vt 0.001814 0.999000
f 2/105/2 67/71/67 70/82/70
f 70/82/70 3/89/3 2/105/2
vt 0.635515 0.284140
vt 0.635515 0.726510
f 3/3/3 28/106/28 27/107/27
f 27/107/27 4/4/4 3/3/3
vt 0.911767 0.001814
f 5/108/5 18/18/18 17/17/17
f 17/17/17 6/95/6 5/108/5
vt 0.979310 0.001000
f 11/109/11 64/68/64 61/65/61
vt 0.912580 0.001000
f 61/65/61 12/110/12 11/109/11
vt 0.976143 0.277685
f 73/85/73 27/92/27 26/111/26
f 26/111/26 74/86/74 73/85/73
f 28/90/28 70/82/70 69/81/69
vt 0.277685 0.995019
f 69/81/69 25/112/25 28/90/28
vt 0.001000 0.931456
f 9/113/9 16/16/16 15/15/15
vt 0.001000 0.998186
f 15/15/15 10/114/10 9/113/9
vt 0.915748 0.277685
f 20/20/20 22/115/22 21/96/21
f 21/96/21 17/17/17 20/20/20
vt 0.277685 0.934624
f 23/116/23 72/84/72 71/83/71
f 71/83/71 24/93/24 23/116/23
vt 0.915911 0.005313
vt 0.915911 0.277331
f 19/19/19 37/117/37 40/118/40
f 40/118/40 20/20/20 19/19/19
vt 0.005144 0.279698
vt 0.005144 0.721513
f 22/22/22 32/119/32 31/120/31
f 31/120/31 23/23/23 22/22/22
vt 0.005313 0.994856
vt 0.277331 0.994856
f 68/72/68 41/121/41 44/122/44
f 44/122/44 69/81/69 68/72/68
f 4/91/4 73/85/73 76/88/76
vt 0.980124 0.001814
f 76/88/76 1/123/1 4/91/4
f 7/94/7 71/83/71 66/70/66
vt 0.001814 0.930643
f 66/70/66 8/124/8 7/94/7
vt 0.975817 0.005150
vt 0.916074 0.005150
f 63/67/63 45/125/45 48/126/48
f 48/126/48 62/66/62 63/67/63
vt 0.005150 0.934950
vt 0.005150 0.994693
f 13/13/13 49/127/49 52/128/52
f 52/128/52 14/14/14 13/13/13
vt 0.975980 0.277331
vt 0.975980 0.005313
f 74/86/74 56/129/56 55/130/55
f 55/130/55 75/87/75 74/86/74
vt 0.277331 0.934787
vt 0.005313 0.934787
f 72/84/72 60/131/60 59/132/59
f 59/132/59 65/69/65 72/84/72
vt 0.001000 0.279421
f 6/133/6 21/21/21 24/24/24
vt 0.001000 0.721791
f 24/24/24 7/134/7 6/133/6
vt 0.638065 0.726232
vt 0.638065 0.284417
f 25/25/25 33/135/33 36/136/36
f 36/136/36 26/26/26 25/25/25
f 39/39/39 29/29/29 32/32/32
f 32/32/32 40/40/40 39/39/39
f 35/35/35 53/53/53 56/56/56
f 56/56/56 36/36/36 35/35/35
f 43/43/43 34/34/34 33/33/33
f 33/33/33 44/44/44 43/43/43
f 30/30/30 57/57/57 60/60/60
f 60/60/60 31/31/31 30/30/30
f 67/71/67 2/105/2 10/114/10
f 10/114/10 15/15/15 67/71/67
f 64/68/64 11/109/11 1/123/1
f 1/123/1 76/88/76 64/68/64
f 16/16/16 9/113/9 8/124/8
f 8/124/8 66/70/66 16/16/16
f 18/18/18 5/108/5 12/110/12
f 12/110/12 61/65/61 18/18/18
f 62/66/62 48/126/48 37/117/37
f 37/117/37 19/19/19 62/66/62
f 75/87/75 55/130/55 45/125/45
f 45/125/45 63/67/63 75/87/75
f 65/69/65 59/132/59 49/127/49
f 49/127/49 13/13/13 65/69/65
f 14/14/14 52/128/52 41/121/41
f 41/121/41 68/72/68 14/14/14
f 46/46/46 51/51/51 50/50/50
f 50/50/50 47/47/47 46/46/46
f 57/57/57 39/39/39 38/38/38
f 38/38/38 58/58/58 57/57/57
f 42/42/42 54/54/54 53/53/53
f 53/53/53 43/43/43 42/42/42
f 39/39/39 57/57/57 30/30/30
f 30/30/30 29/29/29 39/39/39
f 43/43/43 53/53/53 35/35/35
f 35/35/35 34/34/34 43/43/43
f 38/38/38 47/75/47 50/78/50
f 50/78/50 58/58/58 38/38/38
f 42/42/42 51/79/51 46/74/46
f 46/74/46 54/54/54 42/42/42
vt 0.001000 0.924646
vt 0.001000 0.864577
vt 0.417907 0.864577
f 29/137/29 35/138/35 34/139/34
vt 0.417907 0.924646
f 34/139/34 30/140/30 29/137/29
vt 0.911767 0.550329
vt 0.911767 0.289022
vt 0.911929 0.288859
f 39/141/39 38/142/38 47/143/47
vt 0.971836 0.550329
f 53/144/53 39/141/39 47/143/47
vt 0.971673 0.288859
vt 0.971836 0.289022
f 47/143/47 46/145/46 54/146/54
f 53/144/53 47/143/47 54/146/54
vt 0.981274 0.553123
vt 0.981274 0.814430
vt 0.981111 0.814593
f 43/147/43 42/148/42 51/149/51
vt 0.921205 0.553123
f 57/150/57 43/147/43 51/149/51
vt 0.921367 0.814593
vt 0.921205 0.814430
f 51/149/51 50/151/50 58/152/58
f 57/150/57 51/149/51 58/152/58
vt 0.911767 0.550492
f 29/153/29 39/141/39 53/144/53
vt 0.971836 0.550492
f 53/144/53 35/154/35 29/153/29
vt 0.001000 0.798511
vt 0.418233 0.798511
vt 0.418233 0.858254
f 51/155/51 46/156/46 47/157/47
vt 0.001000 0.858254
f 47/157/47 50/158/50 51/155/51
vt 0.909009 0.993752
vt 0.491776 0.993752
vt 0.491776 0.732445
f 39/159/39 57/160/57 58/161/58
vt 0.909009 0.732445
f 58/161/58 38/162/38 39/159/39
vt 0.647503 0.701373
vt 0.647503 0.284140
vt 0.908810 0.284140
f 54/163/54 42/164/42 43/165/43
vt 0.908810 0.701373
f 43/165/43 53/166/53 54/163/54
# 166 faces, 166 coords texture

# End of File
