####
#
# OBJ File Generated by Meshlab
#
####
# Object collision.obj
#
# Vertices: 128
# Faces: 248
#
####
vn 0.163137 0.497958 0.497424
v 0.008924 0.027516 0.073225
vn -0.056321 -0.720280 -0.005577
v -0.001138 -0.029816 0.048402
vn 0.043586 -0.721148 -0.007210
v 0.001174 -0.029816 0.048402
vn -0.004617 0.519240 -0.502370
v -0.001138 0.031386 -0.089488
vn 0.599764 -0.125966 -0.382652
v 0.029073 -0.005026 -0.088720
vn -0.590720 -0.160020 -0.383992
v -0.029038 -0.008123 -0.087935
vn -0.499437 0.173699 0.492339
v -0.026713 0.011245 0.073225
vn 0.499324 -0.171984 0.493056
v 0.028297 -0.009669 0.073225
vn 0.092622 -0.543376 -0.467087
v 0.006599 -0.027492 -0.089488
vn -0.349693 -0.394707 0.493890
v -0.019740 -0.022070 0.073225
vn 0.532365 0.426617 -0.237889
v 0.024424 0.018992 -0.087168
vn -0.461868 0.553487 -0.048343
v -0.019740 0.025191 -0.086383
vn -0.288907 -0.512572 -0.419296
v -0.016639 -0.023622 -0.089488
vn 0.485022 0.191952 0.499914
v 0.026749 0.011239 0.073225
vn -0.222405 0.640963 0.248413
v -0.010442 0.026738 0.072440
vn 0.351550 -0.400032 0.488255
v 0.019775 -0.022843 0.073225
vn -0.477427 0.157096 -0.519028
v -0.029038 0.010466 -0.089488
vn -0.716885 -0.033118 0.083579
v -0.029038 -0.002701 0.067000
vn 0.380565 -0.360937 -0.496892
v 0.022100 -0.018194 -0.090272
vn 0.227712 0.452737 -0.514959
v 0.014350 0.027516 -0.089488
vn 0.345486 0.394483 0.497020
v 0.018998 0.022088 0.073225
vn 0.709233 0.022337 -0.136000
v 0.029849 0.002714 -0.087168
vn -0.141201 -0.516483 0.485092
v -0.007341 -0.029044 0.073225
vn -0.071832 -0.543243 -0.470886
v -0.007341 -0.027492 -0.089488
vn -0.449011 -0.284755 0.489193
v -0.024388 -0.016648 0.073225
vn -0.494942 0.525854 0.022718
v -0.020511 0.020537 0.063911
vn -0.566407 -0.431078 -0.123940
v -0.025159 -0.015870 -0.087168
vn 0.188327 -0.498242 0.488154
v 0.010478 -0.028265 0.073225
vn 0.332239 -0.603616 -0.217420
v 0.013573 -0.025168 -0.087935
vn 0.525303 0.076391 0.490130
v 0.029073 0.003493 0.073225
vn -0.209734 0.629739 -0.285388
v -0.011213 0.029834 -0.087935
vn -0.616280 0.352061 -0.135121
v -0.026713 0.016667 -0.086383
vn 0.621492 0.240551 -0.279085
v 0.028297 0.011239 -0.088720
vn -0.058954 0.519125 0.499039
v -0.003463 0.028283 0.073225
vn 0.604743 -0.388666 0.072326
v 0.025195 -0.016642 0.069336
vn -0.701260 0.095574 -0.145280
v -0.029814 0.008921 -0.087935
vn 0.586415 -0.274486 -0.320595
v 0.026749 -0.011994 -0.088720
vn 0.091250 0.712651 -0.076208
v 0.003499 0.031386 -0.086383
vn 0.334067 0.640068 -0.026802
v 0.015127 0.027516 -0.086383
vn -0.333954 -0.289622 -0.571489
v -0.021287 -0.018967 -0.090272
vn -0.508817 -0.134732 0.494933
v -0.027490 -0.009669 0.073225
vn 0.430535 0.082387 -0.574333
v 0.028297 0.008141 -0.090272
vn -0.308225 -0.653442 -0.004233
v -0.012766 -0.026713 0.039905
vn -0.710305 -0.071803 -0.110985
v -0.029814 -0.005020 -0.086383
vn -0.716425 0.089186 0.028056
v -0.029038 0.002714 0.062359
vn 0.437905 0.293595 0.494012
v 0.024424 0.015894 0.073225
vn -0.283839 0.437511 0.500026
v -0.015091 0.024413 0.073225
vn 0.522892 -0.052937 0.495770
v 0.029073 -0.005799 0.073225
vn -0.099421 0.713813 -0.050916
v -0.005017 0.031386 -0.086383
vn -0.415146 0.319942 0.497290
v -0.023612 0.016661 0.073225
vn -0.558276 0.433860 -0.148661
v -0.023612 0.021315 -0.086383
vn -0.328939 0.631476 -0.122654
v -0.015091 0.028289 -0.087168
vn 0.051246 0.518744 0.500285
v 0.005052 0.028283 0.073225
vn 0.388573 -0.609094 -0.004706
v 0.016674 -0.025168 0.058501
vn 0.192122 0.686313 -0.118617
v 0.007376 0.030614 -0.086383
vn 0.358139 0.623543 0.070267
v 0.015898 0.024413 0.070888
vn -0.252495 -0.653437 -0.176843
v -0.010442 -0.026713 -0.088720
vn 0.456877 0.512042 -0.226015
v 0.017451 0.025958 -0.087935
vn 0.043102 -0.530533 0.488552
v 0.003499 -0.029816 0.073225
vn -0.309374 0.378549 -0.531972
v -0.018963 0.025191 -0.089488
vn -0.460243 -0.537257 -0.146756
v -0.018963 -0.022070 -0.088720
vn -0.376679 -0.615810 0.029963
v -0.015862 -0.025168 0.067799
vn 0.564981 0.331312 -0.305016
v 0.026749 0.015115 -0.087935
vn -0.589528 -0.280579 -0.309416
v -0.027490 -0.011994 -0.087935
vn -0.166255 -0.700515 -0.060365
v -0.008119 -0.030587 0.083295
vn 0.078589 0.693146 0.188092
v 0.005051 0.029837 0.087946
vn 0.068464 0.717267 -0.053362
v 0.005051 0.029837 0.083295
vn 0.626279 -0.082347 0.350713
v 0.030619 -0.005797 0.088720
vn 0.491542 0.069934 -0.524883
v 0.029073 0.003494 0.073227
vn -0.477247 0.095091 -0.534040
v -0.028258 0.005819 0.073225
vn -0.359762 -0.032868 0.625697
v -0.029038 -0.005024 0.090272
vn 0.173213 -0.459500 -0.529965
v 0.010480 -0.028263 0.073225
vn -0.236779 0.434582 -0.526384
v -0.013542 0.025187 0.073225
vn -0.289996 0.369666 0.548867
v -0.018186 0.022863 0.090272
vn 0.074223 -0.217319 0.685033
v 0.009701 -0.029042 0.089494
vn -0.349571 -0.320456 -0.545082
v -0.021284 -0.020516 0.073225
vn 0.227116 0.168676 0.664811
v 0.021320 0.019760 0.090272
vn 0.246540 0.420764 -0.533087
v 0.014345 0.025187 0.073225
vn -0.351275 -0.467945 0.423839
v -0.018186 -0.025939 0.088720
vn 0.412070 -0.259510 -0.533723
v 0.024423 -0.017419 0.073225
vn -0.547018 0.340690 0.326662
v -0.026713 0.015111 0.088720
vn -0.643610 -0.248871 -0.214091
v -0.029038 -0.011998 0.077099
vn 0.460408 -0.500440 0.244112
v 0.022098 -0.022841 0.087172
vn 0.618407 0.371266 -0.041723
v 0.026748 0.015111 0.083295
vn -0.145543 0.564928 0.426240
v -0.008119 0.029057 0.089494
vn -0.160944 -0.453208 -0.539171
v -0.009665 -0.028263 0.073225
vn -0.685950 0.076702 0.213532
v -0.030584 0.004268 0.087946
vn -0.055967 0.491140 -0.526930
v -0.003470 0.028285 0.073225
vn 0.285094 0.510195 0.424769
v 0.015897 0.025961 0.089494
vn -0.397390 0.297360 -0.525038
v -0.023609 0.016663 0.073225
vn 0.588221 0.094225 0.408808
v 0.030619 0.004268 0.088720
vn -0.493017 -0.325601 0.415842
v -0.026713 -0.016640 0.088720
vn 0.376939 0.323917 -0.524406
v 0.022098 0.018987 0.073225
vn 0.051941 -0.597111 0.403444
v 0.004278 -0.031366 0.088720
vn -0.423132 0.585434 0.015257
v -0.018186 0.024409 0.084847
vn 0.181339 -0.166351 0.679301
v 0.025197 -0.016640 0.089494
vn 0.665766 -0.274414 -0.058809
v 0.028300 -0.013543 0.082521
vn 0.362656 -0.622808 -0.050964
v 0.015897 -0.027490 0.082521
vn -0.151884 -0.412878 0.573122
v -0.009665 -0.029042 0.089494
vn 0.486165 -0.085457 -0.527586
v 0.029073 -0.005797 0.073225
vn 0.050603 -0.480138 -0.537506
v 0.003505 -0.029815 0.073225
vn 0.518388 0.423096 0.272525
v 0.022871 0.020539 0.088720
vn -0.719187 -0.055803 -0.040772
v -0.030584 -0.005797 0.083295
vn 0.065367 0.370464 0.616839
v 0.005830 0.028285 0.090272
vn -0.692544 0.196337 -0.061979
v -0.029810 0.008144 0.083295
vn -0.458449 -0.553492 -0.074008
v -0.019738 -0.024392 0.082521
vn -0.451938 -0.046341 -0.561793
v -0.028258 -0.006570 0.073225
vn 0.321689 -0.374641 -0.527415
v 0.019774 -0.022841 0.073225
vn 0.414992 0.589166 -0.051684
v 0.017449 0.025187 0.083295
vn -0.179769 0.697858 -0.051797
v -0.008119 0.029057 0.083295
vn 0.120393 0.477349 -0.528819
v 0.008928 0.027512 0.073225
vn -0.379775 0.114107 0.603951
v -0.028258 0.008144 0.090272
vn 0.087068 -0.714211 -0.065787
v 0.004278 -0.031366 0.082521
vn 0.257162 -0.577871 0.349198
v 0.011253 -0.029815 0.088720
vn 0.715685 -0.077493 -0.061613
v 0.030619 -0.005024 0.082521
vn -0.626644 -0.168436 0.317731
v -0.029810 -0.008894 0.088720
vn 0.249613 0.677412 -0.028496
v 0.011253 0.028285 0.083295
vn 0.577460 0.234368 -0.365538
v 0.027521 0.009689 0.074003
vn 0.671309 0.257633 0.070544
v 0.029073 0.010468 0.085621
vn -0.572093 0.439555 -0.038824
v -0.025161 0.017435 0.084073
vn 0.298206 -0.092870 0.651502
v 0.029073 -0.008122 0.089494
vn 0.539508 -0.321379 0.357285
v 0.026748 -0.016640 0.088720
vn -0.094300 -0.667744 0.259292
v -0.005016 -0.031366 0.087946
vn -0.301170 -0.656607 -0.013034
v -0.012770 -0.029042 0.084073
vn -0.545812 -0.470112 -0.055582
v -0.023609 -0.020516 0.082521
vn -0.264080 -0.402097 -0.539061
v -0.015861 -0.025165 0.073225
vn 0.577888 -0.429028 -0.063142
v 0.025197 -0.018965 0.082521
vn -0.049132 -0.484863 -0.533386
v -0.002690 -0.029815 0.073225
# 128 vertices, 0 vertices normals

f 25//25 41//41 64//64
f 1//1 7//7 8//8
f 3//3 2//2 9//9
f 8//8 7//7 10//10
f 1//1 8//8 14//14
f 8//8 10//10 16//16
f 1//1 14//14 21//21
f 16//16 10//10 23//23
f 9//9 2//2 24//24
f 2//2 23//23 24//24
f 10//10 7//7 25//25
f 10//10 25//25 27//27
f 16//16 23//23 28//28
f 9//9 19//19 29//29
f 28//28 9//9 29//29
f 14//14 8//8 30//30
f 14//14 30//30 33//33
f 30//30 22//22 33//33
f 7//7 1//1 34//34
f 8//8 16//16 35//35
f 16//16 19//19 35//35
f 17//17 6//6 36//36
f 7//7 32//32 36//36
f 32//32 17//17 36//36
f 5//5 8//8 37//37
f 19//19 5//5 37//37
f 8//8 35//35 37//37
f 35//35 19//19 37//37
f 6//6 17//17 40//40
f 19//19 9//9 40//40
f 9//9 24//24 40//40
f 24//24 13//13 40//40
f 7//7 18//18 41//41
f 25//25 7//7 41//41
f 5//5 19//19 42//42
f 4//4 20//20 42//42
f 22//22 5//5 42//42
f 33//33 22//22 42//42
f 19//19 40//40 42//42
f 36//36 6//6 44//44
f 18//18 36//36 44//44
f 6//6 41//41 44//44
f 41//41 18//18 44//44
f 18//18 7//7 45//45
f 36//36 18//18 45//45
f 7//7 36//36 45//45
f 21//21 14//14 46//46
f 11//11 21//21 46//46
f 12//12 26//26 47//47
f 7//7 34//34 47//47
f 34//34 15//15 47//47
f 8//8 5//5 48//48
f 5//5 22//22 48//48
f 30//30 8//8 48//48
f 22//22 30//30 48//48
f 4//4 31//31 49//49
f 31//31 15//15 49//49
f 15//15 34//34 49//49
f 38//38 4//4 49//49
f 34//34 38//38 49//49
f 32//32 7//7 50//50
f 7//7 47//47 50//50
f 47//47 26//26 50//50
f 26//26 12//12 51//51
f 17//17 32//32 51//51
f 50//50 26//26 51//51
f 32//32 50//50 51//51
f 15//15 31//31 52//52
f 12//12 47//47 52//52
f 47//47 15//15 52//52
f 34//34 1//1 53//53
f 1//1 38//38 53//53
f 38//38 34//34 53//53
f 19//19 16//16 54//54
f 16//16 28//28 54//54
f 29//29 19//19 54//54
f 28//28 29//29 54//54
f 20//20 4//4 55//55
f 38//38 1//1 55//55
f 4//4 38//38 55//55
f 39//39 20//20 55//55
f 1//1 39//39 55//55
f 1//1 21//21 56//56
f 39//39 1//1 56//56
f 13//13 24//24 57//57
f 24//24 23//23 57//57
f 43//43 13//13 57//57
f 23//23 43//43 57//57
f 11//11 20//20 58//58
f 21//21 11//11 58//58
f 20//20 39//39 58//58
f 56//56 21//21 58//58
f 39//39 56//56 58//58
f 2//2 3//3 59//59
f 3//3 9//9 59//59
f 23//23 2//2 59//59
f 9//9 28//28 59//59
f 28//28 23//23 59//59
f 31//31 4//4 60//60
f 40//40 17//17 60//60
f 4//4 42//42 60//60
f 42//42 40//40 60//60
f 51//51 12//12 60//60
f 17//17 51//51 60//60
f 12//12 52//52 60//60
f 52//52 31//31 60//60
f 10//10 27//27 61//61
f 40//40 13//13 61//61
f 27//27 40//40 61//61
f 23//23 10//10 62//62
f 13//13 43//43 62//62
f 43//43 23//23 62//62
f 10//10 61//61 62//62
f 61//61 13//13 62//62
f 20//20 11//11 63//63
f 14//14 33//33 63//63
f 42//42 20//20 63//63
f 33//33 42//42 63//63
f 11//11 46//46 63//63
f 46//46 14//14 63//63
f 27//27 25//25 64//64
f 6//6 40//40 64//64
f 40//40 27//27 64//64
f 41//41 6//6 64//64
f 113//113 123//123 128//128
f 72//72 70//70 73//73
f 70//70 72//72 76//76
f 74//74 71//71 77//77
f 71//71 75//75 77//77
f 72//72 73//73 78//78
f 72//72 78//78 80//80
f 66//66 67//67 85//85
f 76//76 72//72 86//86
f 78//78 73//73 88//88
f 73//73 70//70 90//90
f 79//79 71//71 92//92
f 80//80 78//78 93//93
f 81//81 74//74 95//95
f 74//74 85//85 95//95
f 73//73 90//90 95//95
f 77//77 75//75 96//96
f 75//75 71//71 99//99
f 71//71 79//79 99//99
f 94//94 75//75 99//99
f 93//93 69//69 100//100
f 80//80 93//93 100//100
f 97//97 80//80 100//100
f 86//86 72//72 101//101
f 89//89 77//77 102//102
f 77//77 91//91 102//102
f 84//84 93//93 102//102
f 74//74 77//77 104//104
f 66//66 85//85 104//104
f 85//85 74//74 104//104
f 89//89 66//66 104//104
f 77//77 89//89 104//104
f 87//87 81//81 105//105
f 90//90 70//70 105//105
f 70//70 103//103 105//105
f 103//103 87//87 105//105
f 70//70 76//76 107//107
f 76//76 82//82 107//107
f 103//103 70//70 107//107
f 82//82 103//103 107//107
f 72//72 80//80 108//108
f 98//98 72//72 108//108
f 83//83 98//98 108//108
f 93//93 78//78 109//109
f 89//89 102//102 109//109
f 102//102 93//93 109//109
f 85//85 67//67 110//110
f 67//67 88//88 110//110
f 88//88 73//73 110//110
f 73//73 95//95 110//110
f 95//95 85//85 110//110
f 88//88 67//67 111//111
f 78//78 88//88 111//111
f 71//71 74//74 112//112
f 74//74 81//81 112//112
f 81//81 87//87 112//112
f 87//87 71//71 112//112
f 101//101 72//72 113//113
f 75//75 94//94 114//114
f 96//96 75//75 114//114
f 72//72 98//98 114//114
f 98//98 83//83 114//114
f 94//94 113//113 114//114
f 113//113 72//72 114//114
f 91//91 68//68 115//115
f 69//69 91//91 115//115
f 68//68 97//97 115//115
f 100//100 69//69 115//115
f 97//97 100//100 115//115
f 71//71 87//87 116//116
f 92//92 71//71 116//116
f 82//82 92//92 116//116
f 103//103 82//82 116//116
f 87//87 103//103 116//116
f 67//67 66//66 117//117
f 66//66 89//89 117//117
f 109//109 78//78 117//117
f 89//89 109//109 117//117
f 111//111 67//67 117//117
f 78//78 111//111 117//117
f 69//69 93//93 118//118
f 93//93 84//84 118//118
f 91//91 69//69 119//119
f 102//102 91//91 119//119
f 84//84 102//102 119//119
f 69//69 118//118 119//119
f 118//118 84//84 119//119
f 81//81 95//95 120//120
f 95//95 90//90 120//120
f 105//105 81//81 120//120
f 90//90 105//105 120//120
f 68//68 91//91 121//121
f 91//91 77//77 121//121
f 77//77 96//96 121//121
f 121//121 96//96 122//122
f 97//97 68//68 122//122
f 96//96 114//114 122//122
f 114//114 83//83 122//122
f 68//68 121//121 122//122
f 99//99 79//79 123//123
f 94//94 99//99 123//123
f 113//113 94//94 123//123
f 86//86 65//65 124//124
f 79//79 106//106 124//124
f 65//65 123//123 124//124
f 123//123 79//79 124//124
f 82//82 76//76 125//125
f 79//79 92//92 125//125
f 92//92 82//82 125//125
f 106//106 79//79 125//125
f 76//76 106//106 125//125
f 76//76 86//86 126//126
f 106//106 76//76 126//126
f 86//86 124//124 126//126
f 124//124 106//106 126//126
f 80//80 97//97 127//127
f 108//108 80//80 127//127
f 83//83 108//108 127//127
f 122//122 83//83 127//127
f 97//97 122//122 127//127
f 65//65 86//86 128//128
f 86//86 101//101 128//128
f 101//101 113//113 128//128
f 123//123 65//65 128//128
# 248 faces, 0 coords texture

# End of File
