####
#
# OBJ File Generated by Meshlab
#
####
# Object collision.obj
#
# Vertices: 64
# Faces: 124
#
####
vn -0.172811 0.699465 -0.053765
v -0.010319 0.031545 -0.085715
vn -0.068755 -0.719075 -0.014511
v -0.005126 -0.032523 0.071843
vn 0.035714 -0.721464 -0.014844
v 0.003533 -0.032523 0.071843
vn 0.037311 0.506221 0.514154
v 0.005259 0.029812 0.089142
vn 0.675369 -0.054065 -0.250920
v 0.031235 -0.001349 -0.089150
vn -0.526644 -0.121778 -0.479398
v -0.029369 -0.008279 -0.090912
vn -0.636321 0.089821 0.330203
v -0.031102 0.007302 0.087434
vn 0.635595 -0.114627 0.323861
v 0.031235 -0.008279 0.087434
vn 0.124996 -0.522165 -0.483452
v 0.010452 -0.027325 -0.090912
vn 0.502860 0.412869 -0.314131
v 0.026036 0.021156 -0.089150
vn -0.496904 -0.376724 0.364927
v -0.025903 -0.020401 0.087434
vn 0.519343 0.394503 0.310896
v 0.027769 0.015958 0.087434
vn -0.309569 -0.429079 -0.492001
v -0.017245 -0.023860 -0.090912
vn -0.448308 0.262838 -0.501938
v -0.025903 0.019423 -0.090912
vn -0.350647 0.614724 0.145488
v -0.017245 0.026347 0.087434
vn 0.370915 -0.508805 0.354324
v 0.019111 -0.027325 0.087434
vn 0.249416 0.520975 -0.434032
v 0.015650 0.029812 -0.089150
vn 0.399245 -0.323724 -0.507752
v 0.026036 -0.015203 -0.090912
vn 0.353121 0.495901 0.389094
v 0.017377 0.026347 0.087434
vn -0.235354 -0.394662 0.557545
v -0.013785 -0.029057 0.089142
vn 0.708911 0.100863 0.096323
v 0.031235 0.007302 0.083963
vn -0.668336 -0.105628 0.253330
v -0.031102 -0.008279 0.087434
vn 0.061671 0.571272 -0.438009
v 0.003533 0.033278 -0.089150
vn -0.146822 0.622085 0.336838
v -0.010319 0.029812 0.087434
vn -0.645267 0.136409 -0.295008
v -0.029369 0.012492 -0.089150
vn -0.124996 -0.522168 -0.483449
v -0.010319 -0.027325 -0.090912
vn -0.578930 0.386321 0.193913
v -0.027636 0.015958 0.087434
vn -0.401744 0.509844 -0.317282
v -0.020704 0.026347 -0.089150
vn 0.432753 0.127088 -0.564429
v 0.029502 0.012492 -0.090912
vn 0.584827 -0.422861 0.034243
v 0.026036 -0.020401 0.080510
vn -0.419272 -0.587594 0.030838
v -0.018978 -0.027325 0.080510
vn 0.183808 0.686060 0.132449
v 0.010452 0.029812 0.085707
vn 0.309568 -0.429080 -0.492000
v 0.017377 -0.023860 -0.090912
vn -0.430829 -0.309076 -0.490779
v -0.025903 -0.015203 -0.090912
vn 0.305725 -0.000866 0.654628
v 0.029502 -0.004814 0.089142
vn 0.121789 -0.694051 0.159582
v 0.006992 -0.032523 0.085707
vn 0.620383 -0.367060 -0.048975
v 0.027769 -0.013470 -0.087441
vn -0.351690 0.183233 0.603942
v -0.027636 0.014226 0.089142
vn -0.500120 0.509149 0.112486
v -0.022437 0.022882 0.085707
vn -0.270856 0.591792 -0.313729
v -0.015512 0.029812 -0.089150
vn 0.660495 0.262480 -0.129833
v 0.029502 0.014226 -0.089150
vn 0.675520 0.058044 -0.249621
v 0.031235 0.007302 -0.089150
vn -0.222289 -0.638682 0.254321
v -0.012052 -0.030790 0.087434
vn -0.083544 0.714340 -0.068883
v -0.001667 0.033278 -0.085715
vn 0.458584 0.556704 -0.042280
v 0.020843 0.026347 -0.085715
vn 0.271608 -0.669489 0.004481
v 0.012185 -0.030790 0.080510
vn 0.074739 -0.401361 0.596095
v 0.006992 -0.030790 0.089142
vn -0.666943 -0.277744 0.007153
v -0.029369 -0.013470 0.080510
vn -0.083175 0.251281 -0.672269
v -0.013785 0.028080 -0.090912
vn 0.557194 -0.262833 0.377438
v 0.029502 -0.013470 0.087434
vn -0.522242 0.460399 -0.193138
v -0.022437 0.024614 -0.089150
vn -0.355674 -0.119215 0.617487
v -0.029369 -0.010011 0.089142
vn 0.494029 -0.148120 -0.505967
v 0.029502 -0.008279 -0.090912
vn 0.286335 0.113963 0.653476
v 0.027769 0.012492 0.089142
vn 0.631605 0.205052 0.284666
v 0.029502 0.012492 0.087434
vn -0.095423 -0.687947 0.199072
v -0.006860 -0.032523 0.085707
vn 0.201732 0.693657 -0.012255
v 0.010452 0.031545 -0.085715
vn -0.648355 0.255841 0.190230
v -0.029369 0.012492 0.087434
vn -0.276593 0.368518 0.556504
v -0.018978 0.024614 0.089142
vn 0.422359 -0.586135 -0.008050
v 0.019111 -0.027325 0.080510
vn -0.713290 -0.114922 -0.004005
v -0.031102 -0.008279 0.080510
vn 0.212610 -0.173866 0.668262
v 0.020843 -0.022127 0.089142
vn -0.585536 -0.423217 -0.006418
v -0.025903 -0.020401 0.080510
vn 0.204806 0.165805 -0.672733
v 0.026036 0.017690 -0.090912
# 64 vertices, 0 vertices normals

f 29//29 49//49 64//64
f 3//3 2//2 9//9
f 6//6 9//9 13//13
f 9//9 6//6 14//14
f 9//9 14//14 18//18
f 8//8 5//5 21//21
f 14//14 6//6 25//25
f 9//9 2//2 26//26
f 13//13 9//9 26//26
f 18//18 14//14 29//29
f 13//13 26//26 31//31
f 4//4 19//19 32//32
f 19//19 17//17 32//32
f 23//23 4//4 32//32
f 9//9 18//18 33//33
f 18//18 30//30 33//33
f 6//6 13//13 34//34
f 4//4 20//20 35//35
f 2//2 3//3 36//36
f 3//3 9//9 36//36
f 30//30 18//18 37//37
f 20//20 4//4 38//38
f 15//15 28//28 39//39
f 24//24 1//1 40//40
f 15//15 24//24 40//40
f 28//28 15//15 40//40
f 29//29 10//10 41//41
f 29//29 41//41 42//42
f 21//21 5//5 42//42
f 5//5 29//29 42//42
f 41//41 21//21 42//42
f 20//20 11//11 43//43
f 11//11 31//31 43//43
f 31//31 26//26 43//43
f 4//4 23//23 44//44
f 1//1 24//24 44//44
f 24//24 4//4 44//44
f 40//40 1//1 44//44
f 23//23 40//40 44//44
f 12//12 10//10 45//45
f 10//10 17//17 45//45
f 19//19 12//12 45//45
f 17//17 19//19 45//45
f 9//9 33//33 46//46
f 36//36 9//9 46//46
f 16//16 36//36 46//46
f 35//35 20//20 47//47
f 36//36 16//16 47//47
f 20//20 43//43 47//47
f 11//11 22//22 48//48
f 14//14 28//28 49//49
f 29//29 14//14 49//49
f 40//40 23//23 49//49
f 28//28 40//40 49//49
f 16//16 30//30 50//50
f 8//8 35//35 50//50
f 30//30 37//37 50//50
f 14//14 27//27 51//51
f 28//28 14//14 51//51
f 27//27 39//39 51//51
f 39//39 28//28 51//51
f 11//11 20//20 52//52
f 7//7 22//22 52//52
f 22//22 11//11 52//52
f 20//20 38//38 52//52
f 38//38 7//7 52//52
f 5//5 8//8 53//53
f 18//18 29//29 53//53
f 29//29 5//5 53//53
f 37//37 18//18 53//53
f 8//8 50//50 53//53
f 50//50 37//37 53//53
f 19//19 4//4 54//54
f 12//12 19//19 54//54
f 4//4 35//35 54//54
f 54//54 35//35 55//55
f 10//10 12//12 55//55
f 8//8 21//21 55//55
f 35//35 8//8 55//55
f 41//41 10//10 55//55
f 21//21 41//41 55//55
f 12//12 54//54 55//55
f 26//26 2//2 56//56
f 2//2 36//36 56//56
f 43//43 26//26 56//56
f 36//36 47//47 56//56
f 47//47 43//43 56//56
f 17//17 23//23 57//57
f 32//32 17//17 57//57
f 23//23 32//32 57//57
f 25//25 7//7 58//58
f 14//14 25//25 58//58
f 27//27 14//14 58//58
f 7//7 38//38 58//58
f 38//38 27//27 58//58
f 24//24 15//15 59//59
f 4//4 24//24 59//59
f 38//38 4//4 59//59
f 27//27 38//38 59//59
f 15//15 39//39 59//59
f 39//39 27//27 59//59
f 30//30 16//16 60//60
f 33//33 30//30 60//60
f 46//46 33//33 60//60
f 16//16 46//46 60//60
f 22//22 7//7 61//61
f 25//25 6//6 61//61
f 7//7 25//25 61//61
f 6//6 48//48 61//61
f 48//48 22//22 61//61
f 47//47 16//16 62//62
f 35//35 47//47 62//62
f 16//16 50//50 62//62
f 50//50 35//35 62//62
f 31//31 11//11 63//63
f 13//13 31//31 63//63
f 6//6 34//34 63//63
f 34//34 13//13 63//63
f 48//48 6//6 63//63
f 11//11 48//48 63//63
f 17//17 10//10 64//64
f 23//23 17//17 64//64
f 10//10 29//29 64//64
f 49//49 23//23 64//64
# 124 faces, 0 coords texture

# End of File
